# xmcd
#
# Track frame offsets: 
#        151
#        20834
#        37330
#        58681
#        81862
#        98625
#        122202
#        149350
#        168064
#        189458
#        210355
#        235114
#
# Disc length: 3586 seconds
#
# Revision: 0
# Processed by: cddbd v1.5.2PL0 Copyright (c) Steve Scherf et al.
# Submitted via: ExactAudioCopy v0.95b4
#
DISCID=a20e000c
DTITLE=Joy Division - Maximum Joy Division
DYEAR=2007
DGENRE=Speech
TTITLE0=Between Noise And Silence
TTITLE1=The Awakening
TTITLE2=When We Were Young
TTITLE3=The Stranger
TTITLE4=A New Life
TTITLE5=Out Of The Shadows
TTITLE6=A Cold Fire
TTITLE7=The Dance
TTITLE8=Closing In
TTITLE9=Departure
TTITLE10=Last Words
TTITLE11=Legacy
EXTD=
EXTT0=
EXTT1=
EXTT2=
EXTT3=
EXTT4=
EXTT5=
EXTT6=
EXTT7=
EXTT8=
EXTT9=
EXTT10=
EXTT11=
PLAYORDER=
